<mxfile host="app.diagrams.net" modified="2023-03-29T12:23:15.458Z" agent="5.0 (Macintosh; Intel Mac OS X 10_15_7) AppleWebKit/537.36 (KHTML, like Gecko) Chrome/111.0.0.0 Safari/537.36" etag="pOAfcMU1HHuKHM2_2zVK" version="21.0.6" type="github" pages="4">
  <diagram name="SN&gt;BMC" id="X3QRcElQ5Iuo-_neAbF0">
    <mxGraphModel dx="1800" dy="1166" grid="0" gridSize="10" guides="1" tooltips="1" connect="1" arrows="1" fold="1" page="1" pageScale="1" pageWidth="1169" pageHeight="827" math="0" shadow="0">
      <root>
        <mxCell id="YcPQ61z67r9PlWFHKwve-0" />
        <mxCell id="YcPQ61z67r9PlWFHKwve-1" parent="YcPQ61z67r9PlWFHKwve-0" />
        <mxCell id="YcPQ61z67r9PlWFHKwve-2" value="BMC-Astea" style="swimlane;" parent="YcPQ61z67r9PlWFHKwve-1" vertex="1">
          <mxGeometry x="847" y="87" width="303" height="368" as="geometry" />
        </mxCell>
        <mxCell id="YcPQ61z67r9PlWFHKwve-3" value="BMC" style="html=1;outlineConnect=0;whiteSpace=wrap;fillColor=#dae8fc;shape=mxgraph.archimate3.application;appType=comp;archiType=square;strokeColor=#6c8ebf;" parent="YcPQ61z67r9PlWFHKwve-2" vertex="1">
          <mxGeometry x="169" y="128" width="103" height="52" as="geometry" />
        </mxCell>
        <mxCell id="YcPQ61z67r9PlWFHKwve-4" value="BMC API" style="html=1;outlineConnect=0;whiteSpace=wrap;fillColor=#dae8fc;shape=mxgraph.archimate3.application;appType=interface;archiType=square;strokeColor=#6c8ebf;" parent="YcPQ61z67r9PlWFHKwve-2" vertex="1">
          <mxGeometry x="15" y="100.5" width="89" height="74" as="geometry" />
        </mxCell>
        <mxCell id="YcPQ61z67r9PlWFHKwve-7" value="DB: record" style="html=1;outlineConnect=0;whiteSpace=wrap;fillColor=#dae8fc;shape=mxgraph.archimate3.businessObject;overflow=fill;strokeColor=#6c8ebf;" parent="YcPQ61z67r9PlWFHKwve-2" vertex="1">
          <mxGeometry x="139" y="226" width="150" height="75" as="geometry" />
        </mxCell>
        <mxCell id="YcPQ61z67r9PlWFHKwve-8" value="" style="edgeStyle=orthogonalEdgeStyle;html=1;endArrow=open;elbow=vertical;endFill=0;dashed=1;dashPattern=1 4;rounded=0;exitX=0.5;exitY=1;exitDx=0;exitDy=0;exitPerimeter=0;fillColor=#00b9f2;" parent="YcPQ61z67r9PlWFHKwve-2" source="YcPQ61z67r9PlWFHKwve-3" target="YcPQ61z67r9PlWFHKwve-7" edge="1">
          <mxGeometry width="160" relative="1" as="geometry">
            <mxPoint x="-308" y="254" as="sourcePoint" />
            <mxPoint x="-428" y="299" as="targetPoint" />
          </mxGeometry>
        </mxCell>
        <mxCell id="gpyhw4safOaDeC1kDyDY-3" value="" style="edgeStyle=elbowEdgeStyle;html=1;endArrow=block;dashed=1;elbow=horizontal;endFill=1;dashPattern=6 4;rounded=0;fontSize=12;entryX=0;entryY=0.5;entryDx=0;entryDy=0;entryPerimeter=0;exitX=1;exitY=0.5;exitDx=0;exitDy=0;exitPerimeter=0;" parent="YcPQ61z67r9PlWFHKwve-2" source="YcPQ61z67r9PlWFHKwve-4" target="YcPQ61z67r9PlWFHKwve-3" edge="1">
          <mxGeometry width="160" relative="1" as="geometry">
            <mxPoint x="-234.25" y="158" as="sourcePoint" />
            <mxPoint x="25" y="157.8571428571429" as="targetPoint" />
          </mxGeometry>
        </mxCell>
        <mxCell id="gpyhw4safOaDeC1kDyDY-4" value="&lt;b&gt;3&lt;/b&gt;" style="edgeLabel;html=1;align=center;verticalAlign=middle;resizable=0;points=[];fontSize=12;" parent="gpyhw4safOaDeC1kDyDY-3" vertex="1" connectable="0">
          <mxGeometry x="0.0913" y="1" relative="1" as="geometry">
            <mxPoint as="offset" />
          </mxGeometry>
        </mxCell>
        <mxCell id="YcPQ61z67r9PlWFHKwve-9" value="ServiceNow" style="swimlane;" parent="YcPQ61z67r9PlWFHKwve-1" vertex="1">
          <mxGeometry x="18" y="87" width="673" height="368" as="geometry" />
        </mxCell>
        <mxCell id="6pyMC9CE3ZSEGEYcUzwO-1" value="&lt;div&gt;&lt;span style=&quot;background-color: initial;&quot;&gt;Work Note&lt;/span&gt;&lt;br&gt;&lt;/div&gt;" style="html=1;outlineConnect=0;whiteSpace=wrap;fillColor=#f5f5f5;shape=mxgraph.archimate3.representation;fontSize=12;align=center;strokeColor=#666666;fontColor=#333333;" parent="YcPQ61z67r9PlWFHKwve-9" vertex="1">
          <mxGeometry x="328" y="257" width="114" height="61" as="geometry" />
        </mxCell>
        <mxCell id="rpGYdnlyM7rzxQ0NYGCE-1" value="User &lt;br&gt;creates/&lt;br&gt;updates - Incident" style="html=1;outlineConnect=0;whiteSpace=wrap;fillColor=#d5e8d4;shape=mxgraph.archimate3.event;strokeColor=#82b366;" parent="YcPQ61z67r9PlWFHKwve-9" vertex="1">
          <mxGeometry x="9" y="150" width="84" height="57" as="geometry" />
        </mxCell>
        <mxCell id="rpGYdnlyM7rzxQ0NYGCE-7" value="Incident Management" style="html=1;outlineConnect=0;whiteSpace=wrap;fillColor=#d5e8d4;shape=mxgraph.archimate3.application;appType=func;archiType=rounded;strokeColor=#82b366;verticalAlign=top;" parent="YcPQ61z67r9PlWFHKwve-9" vertex="1">
          <mxGeometry x="135" y="38" width="162" height="281" as="geometry" />
        </mxCell>
        <mxCell id="rpGYdnlyM7rzxQ0NYGCE-8" value="Data &lt;br&gt;changed&lt;br&gt;&amp;lt;incident&amp;gt;" style="html=1;outlineConnect=0;whiteSpace=wrap;fillColor=#d5e8d4;shape=mxgraph.archimate3.event;strokeColor=#82b366;" parent="YcPQ61z67r9PlWFHKwve-9" vertex="1">
          <mxGeometry x="325" y="150" width="107" height="57" as="geometry" />
        </mxCell>
        <mxCell id="rpGYdnlyM7rzxQ0NYGCE-9" value="Process Automation" style="html=1;outlineConnect=0;whiteSpace=wrap;fillColor=#d5e8d4;shape=mxgraph.archimate3.application;appType=func;archiType=rounded;strokeColor=#82b366;verticalAlign=top;" parent="YcPQ61z67r9PlWFHKwve-9" vertex="1">
          <mxGeometry x="470" y="38" width="162" height="281" as="geometry" />
        </mxCell>
        <mxCell id="rpGYdnlyM7rzxQ0NYGCE-10" value="Flow Designer" style="html=1;outlineConnect=0;whiteSpace=wrap;fillColor=#d5e8d4;shape=mxgraph.archimate3.application;appType=comp;archiType=square;verticalAlign=top;strokeColor=#82b366;" parent="YcPQ61z67r9PlWFHKwve-9" vertex="1">
          <mxGeometry x="484" y="72" width="140" height="224" as="geometry" />
        </mxCell>
        <mxCell id="rpGYdnlyM7rzxQ0NYGCE-12" value="DB: &amp;lt;incident&amp;gt;" style="html=1;outlineConnect=0;whiteSpace=wrap;fillColor=#d5e8d4;shape=mxgraph.archimate3.businessObject;overflow=fill;strokeColor=#82b366;" parent="YcPQ61z67r9PlWFHKwve-9" vertex="1">
          <mxGeometry x="155.5" y="153" width="121" height="51" as="geometry" />
        </mxCell>
        <mxCell id="rpGYdnlyM7rzxQ0NYGCE-15" value="" style="edgeStyle=none;rounded=0;orthogonalLoop=1;jettySize=auto;html=1;" parent="YcPQ61z67r9PlWFHKwve-9" source="rpGYdnlyM7rzxQ0NYGCE-1" target="rpGYdnlyM7rzxQ0NYGCE-7" edge="1">
          <mxGeometry relative="1" as="geometry" />
        </mxCell>
        <mxCell id="rpGYdnlyM7rzxQ0NYGCE-16" value="&lt;b&gt;A&lt;/b&gt;" style="edgeLabel;html=1;align=center;verticalAlign=middle;resizable=0;points=[];" parent="rpGYdnlyM7rzxQ0NYGCE-15" vertex="1" connectable="0">
          <mxGeometry x="0.0857" y="-1" relative="1" as="geometry">
            <mxPoint as="offset" />
          </mxGeometry>
        </mxCell>
        <mxCell id="rpGYdnlyM7rzxQ0NYGCE-0" value="Create / Update BMC record" style="html=1;outlineConnect=0;whiteSpace=wrap;fillColor=#d5e8d4;shape=mxgraph.archimate3.application;appType=proc;archiType=rounded;strokeColor=#82b366;" parent="YcPQ61z67r9PlWFHKwve-9" vertex="1">
          <mxGeometry x="508" y="115" width="92" height="45" as="geometry" />
        </mxCell>
        <mxCell id="rpGYdnlyM7rzxQ0NYGCE-17" value="Update &amp;lt;incident&amp;gt;" style="html=1;outlineConnect=0;whiteSpace=wrap;fillColor=#d5e8d4;shape=mxgraph.archimate3.application;appType=proc;archiType=rounded;strokeColor=#82b366;" parent="YcPQ61z67r9PlWFHKwve-9" vertex="1">
          <mxGeometry x="508" y="215" width="92" height="45" as="geometry" />
        </mxCell>
        <mxCell id="YcPQ61z67r9PlWFHKwve-14" value="" style="edgeStyle=orthogonalEdgeStyle;html=1;endArrow=open;elbow=vertical;endFill=0;dashed=1;dashPattern=1 4;rounded=0;fillColor=#80b6a1;entryX=0.75;entryY=0;entryDx=0;entryDy=0;entryPerimeter=0;" parent="YcPQ61z67r9PlWFHKwve-9" source="rpGYdnlyM7rzxQ0NYGCE-17" target="6pyMC9CE3ZSEGEYcUzwO-1" edge="1">
          <mxGeometry width="160" relative="1" as="geometry">
            <mxPoint x="461" y="-150" as="sourcePoint" />
            <mxPoint x="454" y="293.48" as="targetPoint" />
          </mxGeometry>
        </mxCell>
        <mxCell id="rpGYdnlyM7rzxQ0NYGCE-18" value="" style="edgeStyle=none;rounded=0;orthogonalLoop=1;jettySize=auto;html=1;fontSize=6;" parent="YcPQ61z67r9PlWFHKwve-9" source="rpGYdnlyM7rzxQ0NYGCE-8" target="rpGYdnlyM7rzxQ0NYGCE-9" edge="1">
          <mxGeometry relative="1" as="geometry" />
        </mxCell>
        <mxCell id="rpGYdnlyM7rzxQ0NYGCE-19" value="&lt;font style=&quot;font-size: 12px;&quot;&gt;&lt;b&gt;1&lt;/b&gt;&lt;/font&gt;" style="edgeLabel;html=1;align=center;verticalAlign=middle;resizable=0;points=[];fontSize=6;" parent="rpGYdnlyM7rzxQ0NYGCE-18" vertex="1" connectable="0">
          <mxGeometry x="0.4" y="-1" relative="1" as="geometry">
            <mxPoint x="-9" y="-1" as="offset" />
          </mxGeometry>
        </mxCell>
        <mxCell id="rpGYdnlyM7rzxQ0NYGCE-20" value="" style="edgeStyle=orthogonalEdgeStyle;html=1;endArrow=open;elbow=vertical;endFill=0;dashed=1;dashPattern=1 4;rounded=0;fillColor=#80b6a1;exitX=0.25;exitY=0;exitDx=0;exitDy=0;exitPerimeter=0;" parent="YcPQ61z67r9PlWFHKwve-9" source="6pyMC9CE3ZSEGEYcUzwO-1" target="rpGYdnlyM7rzxQ0NYGCE-12" edge="1">
          <mxGeometry width="160" relative="1" as="geometry">
            <mxPoint x="518" y="247.48000000000002" as="sourcePoint" />
            <mxPoint x="237.25" y="223.00000000000023" as="targetPoint" />
          </mxGeometry>
        </mxCell>
        <mxCell id="rpGYdnlyM7rzxQ0NYGCE-22" value="" style="edgeStyle=elbowEdgeStyle;html=1;endArrow=block;dashed=1;elbow=vertical;endFill=1;dashPattern=6 4;rounded=0;fontSize=12;exitX=0.5;exitY=1;exitDx=0;exitDy=0;exitPerimeter=0;" parent="YcPQ61z67r9PlWFHKwve-9" source="rpGYdnlyM7rzxQ0NYGCE-0" target="rpGYdnlyM7rzxQ0NYGCE-17" edge="1">
          <mxGeometry width="160" relative="1" as="geometry">
            <mxPoint x="610" y="147.5" as="sourcePoint" />
            <mxPoint x="854" y="147.5999999999999" as="targetPoint" />
          </mxGeometry>
        </mxCell>
        <mxCell id="rpGYdnlyM7rzxQ0NYGCE-23" value="&lt;b&gt;4&lt;/b&gt;" style="edgeLabel;html=1;align=center;verticalAlign=middle;resizable=0;points=[];fontSize=12;" parent="rpGYdnlyM7rzxQ0NYGCE-22" vertex="1" connectable="0">
          <mxGeometry x="0.0913" y="1" relative="1" as="geometry">
            <mxPoint as="offset" />
          </mxGeometry>
        </mxCell>
        <mxCell id="gpyhw4safOaDeC1kDyDY-0" value="" style="edgeStyle=elbowEdgeStyle;html=1;endArrow=block;dashed=1;elbow=vertical;endFill=1;dashPattern=6 4;rounded=0;fontSize=12;exitX=1;exitY=0.5;exitDx=0;exitDy=0;exitPerimeter=0;" parent="YcPQ61z67r9PlWFHKwve-1" source="rpGYdnlyM7rzxQ0NYGCE-0" target="YcPQ61z67r9PlWFHKwve-4" edge="1">
          <mxGeometry width="160" relative="1" as="geometry">
            <mxPoint x="676" y="-28" as="sourcePoint" />
            <mxPoint x="836" y="-28" as="targetPoint" />
          </mxGeometry>
        </mxCell>
        <mxCell id="gpyhw4safOaDeC1kDyDY-1" value="&lt;b&gt;2&lt;/b&gt;" style="edgeLabel;html=1;align=center;verticalAlign=middle;resizable=0;points=[];fontSize=12;" parent="gpyhw4safOaDeC1kDyDY-0" vertex="1" connectable="0">
          <mxGeometry x="0.0913" y="1" relative="1" as="geometry">
            <mxPoint as="offset" />
          </mxGeometry>
        </mxCell>
        <mxCell id="ZXxVEiEfRRIUjGr8tMKc-0" value="&lt;div&gt;&lt;b&gt;Synchronous WS call&lt;/b&gt;&lt;/div&gt;&lt;div&gt;Basic Auth over TLS 1.2&lt;/div&gt;" style="text;html=1;align=center;verticalAlign=middle;resizable=0;points=[];autosize=1;strokeColor=none;fillColor=none;" parent="YcPQ61z67r9PlWFHKwve-1" vertex="1">
          <mxGeometry x="694" y="177" width="147" height="41" as="geometry" />
        </mxCell>
        <mxCell id="krm_BuWDZD5eRRXgnMsU-0" value="&lt;div style=&quot;font-size: 12px;&quot;&gt;XML: ServiceNow Outbound Message&lt;/div&gt;" style="html=1;outlineConnect=0;whiteSpace=wrap;fillColor=#f5f5f5;shape=mxgraph.archimate3.representation;fontSize=12;align=center;strokeColor=#666666;fontColor=#333333;" parent="YcPQ61z67r9PlWFHKwve-1" vertex="1">
          <mxGeometry x="710" y="259" width="123" height="61" as="geometry" />
        </mxCell>
        <mxCell id="TufjwNmcIHd0mHSWZ5qC-0" value="" style="edgeStyle=orthogonalEdgeStyle;html=1;endArrow=open;elbow=vertical;endFill=0;dashed=1;dashPattern=1 4;rounded=0;fillColor=#80b6a1;" parent="YcPQ61z67r9PlWFHKwve-1" source="rpGYdnlyM7rzxQ0NYGCE-0" target="krm_BuWDZD5eRRXgnMsU-0" edge="1">
          <mxGeometry width="160" relative="1" as="geometry">
            <mxPoint x="489" y="306" as="sourcePoint" />
            <mxPoint x="624" y="319.25" as="targetPoint" />
            <Array as="points">
              <mxPoint x="599" y="288" />
            </Array>
          </mxGeometry>
        </mxCell>
        <mxCell id="TufjwNmcIHd0mHSWZ5qC-1" value="" style="edgeStyle=orthogonalEdgeStyle;html=1;endArrow=open;elbow=vertical;endFill=0;dashed=1;dashPattern=1 4;rounded=0;fillColor=#80b6a1;" parent="YcPQ61z67r9PlWFHKwve-1" source="YcPQ61z67r9PlWFHKwve-4" target="krm_BuWDZD5eRRXgnMsU-0" edge="1">
          <mxGeometry width="160" relative="1" as="geometry">
            <mxPoint x="499" y="316" as="sourcePoint" />
            <mxPoint x="634" y="329.25" as="targetPoint" />
            <Array as="points">
              <mxPoint x="880" y="287" />
            </Array>
          </mxGeometry>
        </mxCell>
      </root>
    </mxGraphModel>
  </diagram>
  <diagram name="BMC&gt;SN" id="d-gL0-F1R19KWdihxOas">
    <mxGraphModel dx="1800" dy="1166" grid="0" gridSize="10" guides="1" tooltips="1" connect="1" arrows="1" fold="1" page="1" pageScale="1" pageWidth="1169" pageHeight="827" math="0" shadow="0">
      <root>
        <mxCell id="RvUQp98ntliPEG7AJHw2-0" />
        <mxCell id="RvUQp98ntliPEG7AJHw2-1" parent="RvUQp98ntliPEG7AJHw2-0" />
        <mxCell id="RvUQp98ntliPEG7AJHw2-2" value="BMC-Astea" style="swimlane;" parent="RvUQp98ntliPEG7AJHw2-1" vertex="1">
          <mxGeometry x="797" y="70" width="328" height="464" as="geometry" />
        </mxCell>
        <mxCell id="RvUQp98ntliPEG7AJHw2-3" value="DB: record" style="html=1;outlineConnect=0;whiteSpace=wrap;fillColor=#dae8fc;shape=mxgraph.archimate3.businessObject;overflow=fill;strokeColor=#6c8ebf;" parent="RvUQp98ntliPEG7AJHw2-2" vertex="1">
          <mxGeometry x="147" y="175" width="130" height="61" as="geometry" />
        </mxCell>
        <mxCell id="RvUQp98ntliPEG7AJHw2-4" value="&lt;div&gt;Data &lt;br&gt;&lt;/div&gt;&lt;div&gt;Changes&lt;/div&gt;" style="html=1;outlineConnect=0;whiteSpace=wrap;fillColor=#dae8fc;shape=mxgraph.archimate3.event;direction=west;strokeColor=#6c8ebf;" parent="RvUQp98ntliPEG7AJHw2-2" vertex="1">
          <mxGeometry x="213" y="64" width="98" height="45" as="geometry" />
        </mxCell>
        <mxCell id="RvUQp98ntliPEG7AJHw2-5" value="ServiceNow" style="swimlane;" parent="RvUQp98ntliPEG7AJHw2-1" vertex="1">
          <mxGeometry x="55" y="70" width="552" height="462" as="geometry" />
        </mxCell>
        <mxCell id="RvUQp98ntliPEG7AJHw2-6" value="&lt;div&gt;Scripted REST API&lt;/div&gt;" style="html=1;outlineConnect=0;whiteSpace=wrap;fillColor=#d5e8d4;shape=mxgraph.archimate3.application;appType=interface;archiType=square;strokeColor=#82b366;verticalAlign=top;" parent="RvUQp98ntliPEG7AJHw2-5" vertex="1">
          <mxGeometry x="21" y="188" width="413" height="96" as="geometry" />
        </mxCell>
        <mxCell id="RvUQp98ntliPEG7AJHw2-7" value="&lt;div&gt;Data &lt;br&gt;&lt;/div&gt;&lt;div&gt;transformation&lt;/div&gt;" style="html=1;outlineConnect=0;whiteSpace=wrap;fillColor=#d5e8d4;shape=mxgraph.archimate3.application;appType=func;archiType=rounded;strokeColor=#82b366;verticalAlign=middle;align=center;" parent="RvUQp98ntliPEG7AJHw2-5" vertex="1">
          <mxGeometry x="167" y="218" width="125" height="53" as="geometry" />
        </mxCell>
        <mxCell id="RvUQp98ntliPEG7AJHw2-8" value="&lt;div&gt;Asyn Flow&lt;/div&gt;&lt;div&gt;registration&lt;br&gt;&lt;/div&gt;" style="html=1;outlineConnect=0;whiteSpace=wrap;fillColor=#d5e8d4;shape=mxgraph.archimate3.application;appType=func;archiType=rounded;strokeColor=#82b366;verticalAlign=middle;align=center;" parent="RvUQp98ntliPEG7AJHw2-5" vertex="1">
          <mxGeometry x="33" y="218" width="125" height="53" as="geometry" />
        </mxCell>
        <mxCell id="RvUQp98ntliPEG7AJHw2-9" value="Pre-Validation" style="html=1;outlineConnect=0;whiteSpace=wrap;fillColor=#d5e8d4;shape=mxgraph.archimate3.application;appType=func;archiType=rounded;strokeColor=#82b366;verticalAlign=middle;align=center;" parent="RvUQp98ntliPEG7AJHw2-5" vertex="1">
          <mxGeometry x="301" y="218" width="125" height="53" as="geometry" />
        </mxCell>
        <mxCell id="RvUQp98ntliPEG7AJHw2-10" value="&lt;span id=&quot;hs_cos_wrapper_post_body&quot; class=&quot;hs_cos_wrapper hs_cos_wrapper_meta_field hs_cos_wrapper_type_rich_text&quot;&gt;Process Automation&lt;/span&gt;" style="html=1;outlineConnect=0;whiteSpace=wrap;fillColor=#d5e8d4;shape=mxgraph.archimate3.application;appType=func;archiType=rounded;verticalAlign=top;strokeColor=#82b366;" parent="RvUQp98ntliPEG7AJHw2-5" vertex="1">
          <mxGeometry x="89" y="323" width="186" height="123" as="geometry" />
        </mxCell>
        <mxCell id="RvUQp98ntliPEG7AJHw2-28" value="&lt;div&gt;&lt;span class=&quot;ng-scope&quot;&gt;&lt;span class=&quot;ng-scope&quot;&gt;&lt;span id=&quot;section_tab.d582dcb0c3310200b0449f2974d3aebd&quot;&gt;&lt;span id=&quot;section-d582dcb0c3310200b0449f2974d3aebd&quot;&gt;ADCv2 &lt;br&gt;&lt;/span&gt;&lt;/span&gt;&lt;/span&gt;&lt;/span&gt;&lt;/div&gt;&lt;div&gt;&lt;span class=&quot;ng-scope&quot;&gt;&lt;span class=&quot;ng-scope&quot;&gt;&lt;span id=&quot;section_tab.d582dcb0c3310200b0449f2974d3aebd&quot;&gt;&lt;span id=&quot;section-d582dcb0c3310200b0449f2974d3aebd&quot;&gt;load balancer&lt;/span&gt;&lt;/span&gt;&lt;/span&gt;&lt;/span&gt;&lt;/div&gt;&amp;nbsp;(SSL termination)" style="html=1;outlineConnect=0;whiteSpace=wrap;fillColor=#d5e8d4;shape=mxgraph.archimate3.tech;techType=device;fontSize=12;strokeColor=#82b366;" parent="RvUQp98ntliPEG7AJHw2-5" vertex="1">
          <mxGeometry x="413" y="91" width="122" height="75" as="geometry" />
        </mxCell>
        <mxCell id="RvUQp98ntliPEG7AJHw2-29" value="&lt;span class=&quot;ph cmd&quot;&gt;&lt;span class=&quot;ph menucascade&quot;&gt;&lt;span class=&quot;ph uicontrol&quot;&gt;Certificate Based Authentication&lt;/span&gt;&lt;/span&gt;&lt;/span&gt;" style="html=1;outlineConnect=0;whiteSpace=wrap;fillColor=#d5e8d4;shape=mxgraph.archimate3.application;appType=func;archiType=rounded;strokeColor=#82b366;verticalAlign=top;align=center;" parent="RvUQp98ntliPEG7AJHw2-5" vertex="1">
          <mxGeometry x="21" y="49" width="287" height="91" as="geometry" />
        </mxCell>
        <mxCell id="RvUQp98ntliPEG7AJHw2-30" value="&lt;div&gt;&lt;span class=&quot;ph cmd&quot;&gt;&lt;span class=&quot;ph menucascade&quot;&gt;&lt;span class=&quot;ph uicontrol&quot;&gt;CA Certificate&lt;/span&gt;&lt;/span&gt;&lt;/span&gt;&lt;/div&gt;&lt;div&gt;&lt;span class=&quot;ph cmd&quot;&gt;&lt;span class=&quot;ph menucascade&quot;&gt;&lt;span class=&quot;ph uicontrol&quot;&gt;Chain&lt;/span&gt;&lt;/span&gt;&lt;/span&gt;&lt;/div&gt;" style="html=1;outlineConnect=0;whiteSpace=wrap;fillColor=#d5e8d4;shape=mxgraph.archimate3.application;appType=comp;archiType=square;strokeColor=#82b366;verticalAlign=middle;" parent="RvUQp98ntliPEG7AJHw2-5" vertex="1">
          <mxGeometry x="29" y="80" width="118" height="47" as="geometry" />
        </mxCell>
        <mxCell id="RvUQp98ntliPEG7AJHw2-31" value="&lt;span class=&quot;ph cmd&quot;&gt;&lt;span class=&quot;ph menucascade&quot;&gt;&lt;span class=&quot;ph uicontrol&quot;&gt;User to Certificate Mapping&lt;/span&gt;&lt;/span&gt;&lt;/span&gt;" style="html=1;outlineConnect=0;whiteSpace=wrap;fillColor=#d5e8d4;shape=mxgraph.archimate3.application;appType=comp;archiType=square;strokeColor=#82b366;verticalAlign=middle;" parent="RvUQp98ntliPEG7AJHw2-5" vertex="1">
          <mxGeometry x="159" y="80" width="130" height="47" as="geometry" />
        </mxCell>
        <mxCell id="RvUQp98ntliPEG7AJHw2-36" value="&lt;div&gt;Header: &lt;br&gt;&lt;/div&gt;&lt;div&gt;+ x-client-cert&lt;br&gt;&lt;/div&gt;" style="text;html=1;align=center;verticalAlign=middle;resizable=0;points=[];autosize=1;strokeColor=none;fillColor=none;" parent="RvUQp98ntliPEG7AJHw2-5" vertex="1">
          <mxGeometry x="322.5" y="80" width="82" height="32" as="geometry" />
        </mxCell>
        <mxCell id="5C0ruvfyT3z_VKV0-DVf-0" value="" style="edgeStyle=elbowEdgeStyle;html=1;endArrow=block;dashed=1;elbow=vertical;endFill=1;dashPattern=6 4;rounded=0;fontSize=12;exitX=0.5;exitY=1;exitDx=0;exitDy=0;exitPerimeter=0;" parent="RvUQp98ntliPEG7AJHw2-5" source="RvUQp98ntliPEG7AJHw2-28" target="RvUQp98ntliPEG7AJHw2-6" edge="1">
          <mxGeometry width="160" relative="1" as="geometry">
            <mxPoint x="425.9999999999998" y="114" as="sourcePoint" />
            <mxPoint x="318" y="114" as="targetPoint" />
            <Array as="points">
              <mxPoint x="466" y="200" />
              <mxPoint x="471" y="187" />
              <mxPoint x="347" y="114" />
            </Array>
          </mxGeometry>
        </mxCell>
        <mxCell id="5C0ruvfyT3z_VKV0-DVf-1" value="&lt;b&gt;C&lt;/b&gt;" style="edgeLabel;html=1;align=center;verticalAlign=middle;resizable=0;points=[];fontSize=12;" parent="5C0ruvfyT3z_VKV0-DVf-0" vertex="1" connectable="0">
          <mxGeometry x="-0.0155" relative="1" as="geometry">
            <mxPoint as="offset" />
          </mxGeometry>
        </mxCell>
        <mxCell id="5C0ruvfyT3z_VKV0-DVf-2" value="" style="edgeStyle=elbowEdgeStyle;html=1;endArrow=open;elbow=vertical;endFill=0;dashed=1;dashPattern=1 4;rounded=0;fontSize=12;" parent="RvUQp98ntliPEG7AJHw2-5" source="RvUQp98ntliPEG7AJHw2-28" target="RvUQp98ntliPEG7AJHw2-29" edge="1">
          <mxGeometry width="160" relative="1" as="geometry">
            <mxPoint x="482" y="301" as="sourcePoint" />
            <mxPoint x="642" y="301" as="targetPoint" />
          </mxGeometry>
        </mxCell>
        <mxCell id="5C0ruvfyT3z_VKV0-DVf-3" value="" style="edgeStyle=elbowEdgeStyle;html=1;endArrow=open;elbow=vertical;endFill=0;dashed=1;dashPattern=1 4;rounded=0;fontSize=12;" parent="RvUQp98ntliPEG7AJHw2-5" source="RvUQp98ntliPEG7AJHw2-6" target="RvUQp98ntliPEG7AJHw2-29" edge="1">
          <mxGeometry width="160" relative="1" as="geometry">
            <mxPoint x="423" y="125.65517241379314" as="sourcePoint" />
            <mxPoint x="318" y="125.65517241379314" as="targetPoint" />
          </mxGeometry>
        </mxCell>
        <mxCell id="T3Ntwo333TGOfmnkiFuI-0" value="DB: Incident" style="html=1;outlineConnect=0;whiteSpace=wrap;fillColor=#d5e8d4;shape=mxgraph.archimate3.businessObject;overflow=fill;strokeColor=#82b366;" parent="RvUQp98ntliPEG7AJHw2-5" vertex="1">
          <mxGeometry x="347" y="355.5" width="130" height="58" as="geometry" />
        </mxCell>
        <mxCell id="RvUQp98ntliPEG7AJHw2-11" value="BMC" style="html=1;outlineConnect=0;whiteSpace=wrap;fillColor=#dae8fc;shape=mxgraph.archimate3.application;appType=comp;archiType=square;strokeColor=#6c8ebf;verticalAlign=top;" parent="RvUQp98ntliPEG7AJHw2-1" vertex="1">
          <mxGeometry x="810" y="119" width="163" height="75" as="geometry" />
        </mxCell>
        <mxCell id="RvUQp98ntliPEG7AJHw2-12" value="" style="edgeStyle=orthogonalEdgeStyle;html=1;endArrow=open;elbow=vertical;endFill=0;dashed=1;dashPattern=1 4;rounded=0;exitX=0.75;exitY=1;exitDx=0;exitDy=0;exitPerimeter=0;fillColor=#00b9f2;" parent="RvUQp98ntliPEG7AJHw2-1" source="RvUQp98ntliPEG7AJHw2-11" target="RvUQp98ntliPEG7AJHw2-3" edge="1">
          <mxGeometry width="160" relative="1" as="geometry">
            <mxPoint x="727" y="234" as="sourcePoint" />
            <mxPoint x="772" y="291.5" as="targetPoint" />
          </mxGeometry>
        </mxCell>
        <mxCell id="RvUQp98ntliPEG7AJHw2-13" value="" style="edgeStyle=none;rounded=0;orthogonalLoop=1;jettySize=auto;html=1;fillColor=#80b6a1;exitX=1;exitY=0.5;exitDx=0;exitDy=0;exitPerimeter=0;entryX=1;entryY=0.5;entryDx=0;entryDy=0;entryPerimeter=0;" parent="RvUQp98ntliPEG7AJHw2-1" source="RvUQp98ntliPEG7AJHw2-4" target="RvUQp98ntliPEG7AJHw2-11" edge="1">
          <mxGeometry relative="1" as="geometry">
            <mxPoint x="857" y="7" as="sourcePoint" />
            <mxPoint x="707" y="7" as="targetPoint" />
          </mxGeometry>
        </mxCell>
        <mxCell id="RvUQp98ntliPEG7AJHw2-14" value="&lt;font style=&quot;font-size: 14px&quot;&gt;&lt;b&gt;A&lt;/b&gt;&lt;/font&gt;" style="edgeLabel;html=1;align=center;verticalAlign=middle;resizable=0;points=[];fillColor=#80b6a1;" parent="RvUQp98ntliPEG7AJHw2-13" vertex="1" connectable="0">
          <mxGeometry x="0.1385" relative="1" as="geometry">
            <mxPoint y="1" as="offset" />
          </mxGeometry>
        </mxCell>
        <mxCell id="RvUQp98ntliPEG7AJHw2-17" value="" style="edgeStyle=orthogonalEdgeStyle;html=1;endArrow=open;elbow=vertical;endFill=0;dashed=1;dashPattern=1 4;rounded=0;exitX=0.25;exitY=1;exitDx=0;exitDy=0;exitPerimeter=0;entryX=1;entryY=0.5;entryDx=0;entryDy=0;entryPerimeter=0;fillColor=#80b6a1;" parent="RvUQp98ntliPEG7AJHw2-1" source="RvUQp98ntliPEG7AJHw2-11" target="RvUQp98ntliPEG7AJHw2-19" edge="1">
          <mxGeometry width="160" relative="1" as="geometry">
            <mxPoint x="415" y="-223.5" as="sourcePoint" />
            <mxPoint x="374" y="-166" as="targetPoint" />
          </mxGeometry>
        </mxCell>
        <mxCell id="RvUQp98ntliPEG7AJHw2-18" value="" style="edgeStyle=orthogonalEdgeStyle;html=1;endArrow=open;elbow=vertical;endFill=0;dashed=1;dashPattern=1 4;rounded=0;fillColor=#80b6a1;entryX=0;entryY=0.5;entryDx=0;entryDy=0;entryPerimeter=0;" parent="RvUQp98ntliPEG7AJHw2-1" source="RvUQp98ntliPEG7AJHw2-6" target="RvUQp98ntliPEG7AJHw2-19" edge="1">
          <mxGeometry width="160" relative="1" as="geometry">
            <mxPoint x="425" y="-213.5" as="sourcePoint" />
            <mxPoint x="384" y="-156" as="targetPoint" />
          </mxGeometry>
        </mxCell>
        <mxCell id="RvUQp98ntliPEG7AJHw2-19" value="&lt;div style=&quot;font-size: 12px;&quot;&gt;XML: BMC&amp;nbsp;&lt;/div&gt;&lt;div style=&quot;font-size: 12px;&quot;&gt;Outbound Message&lt;/div&gt;" style="html=1;outlineConnect=0;whiteSpace=wrap;fillColor=#f5f5f5;shape=mxgraph.archimate3.representation;fontSize=12;align=center;strokeColor=#666666;fontColor=#333333;" parent="RvUQp98ntliPEG7AJHw2-1" vertex="1">
          <mxGeometry x="624" y="284.5" width="153" height="69.5" as="geometry" />
        </mxCell>
        <mxCell id="RvUQp98ntliPEG7AJHw2-20" value="&lt;div&gt;&lt;b&gt;Asynchronous&lt;/b&gt;&lt;/div&gt;&lt;div&gt;(mTLS)&lt;br&gt;&lt;/div&gt;" style="text;html=1;align=center;verticalAlign=middle;resizable=0;points=[];autosize=1;strokeColor=none;fillColor=none;" parent="RvUQp98ntliPEG7AJHw2-1" vertex="1">
          <mxGeometry x="658" y="131" width="94" height="32" as="geometry" />
        </mxCell>
        <mxCell id="RvUQp98ntliPEG7AJHw2-21" value="Outbound Messaging" style="html=1;outlineConnect=0;whiteSpace=wrap;fillColor=#dae8fc;shape=mxgraph.archimate3.application;appType=comp;archiType=square;strokeColor=#6c8ebf;verticalAlign=middle;" parent="RvUQp98ntliPEG7AJHw2-1" vertex="1">
          <mxGeometry x="816" y="146.5" width="148.5" height="41" as="geometry" />
        </mxCell>
        <mxCell id="RvUQp98ntliPEG7AJHw2-22" value="Flow Designer" style="html=1;outlineConnect=0;whiteSpace=wrap;fillColor=#d5e8d4;shape=mxgraph.archimate3.application;appType=comp;archiType=square;strokeColor=#82b366;verticalAlign=top;" parent="RvUQp98ntliPEG7AJHw2-1" vertex="1">
          <mxGeometry x="164" y="428" width="148" height="81" as="geometry" />
        </mxCell>
        <mxCell id="RvUQp98ntliPEG7AJHw2-23" value="Flow Action" style="html=1;outlineConnect=0;whiteSpace=wrap;fillColor=#d5e8d4;shape=mxgraph.archimate3.application;appType=comp;archiType=square;strokeColor=#82b366;verticalAlign=middle;" parent="RvUQp98ntliPEG7AJHw2-1" vertex="1">
          <mxGeometry x="183.5" y="455" width="101" height="47" as="geometry" />
        </mxCell>
        <mxCell id="RvUQp98ntliPEG7AJHw2-26" value="&lt;b&gt;D&lt;/b&gt; (Asynchronous)" style="edgeStyle=orthogonalEdgeStyle;html=1;endArrow=block;dashed=1;elbow=vertical;endFill=1;dashPattern=6 4;rounded=0;exitX=0.25;exitY=1;exitDx=0;exitDy=0;exitPerimeter=0;entryX=0;entryY=0.5;entryDx=0;entryDy=0;entryPerimeter=0;" parent="RvUQp98ntliPEG7AJHw2-1" source="RvUQp98ntliPEG7AJHw2-8" target="RvUQp98ntliPEG7AJHw2-22" edge="1">
          <mxGeometry x="-0.5157" width="160" relative="1" as="geometry">
            <mxPoint x="163" y="446" as="sourcePoint" />
            <mxPoint x="170" y="429" as="targetPoint" />
            <Array as="points">
              <mxPoint x="119" y="375" />
              <mxPoint x="120" y="375" />
              <mxPoint x="120" y="468" />
            </Array>
            <mxPoint as="offset" />
          </mxGeometry>
        </mxCell>
        <mxCell id="QjQv4OoeNJB3LHj51hYF-0" value="" style="edgeStyle=elbowEdgeStyle;html=1;endArrow=block;dashed=1;elbow=vertical;endFill=1;dashPattern=6 4;rounded=0;fontSize=12;" parent="RvUQp98ntliPEG7AJHw2-1" source="RvUQp98ntliPEG7AJHw2-21" target="RvUQp98ntliPEG7AJHw2-28" edge="1">
          <mxGeometry width="160" relative="1" as="geometry">
            <mxPoint x="493.0000000000002" y="184" as="sourcePoint" />
            <mxPoint x="638" y="121" as="targetPoint" />
            <Array as="points">
              <mxPoint x="646" y="178" />
              <mxPoint x="616" y="167" />
              <mxPoint x="668" y="173" />
              <mxPoint x="402" y="184" />
            </Array>
          </mxGeometry>
        </mxCell>
        <mxCell id="QjQv4OoeNJB3LHj51hYF-1" value="&lt;b&gt;B&lt;/b&gt;" style="edgeLabel;html=1;align=center;verticalAlign=middle;resizable=0;points=[];fontSize=12;" parent="QjQv4OoeNJB3LHj51hYF-0" vertex="1" connectable="0">
          <mxGeometry x="-0.0155" relative="1" as="geometry">
            <mxPoint as="offset" />
          </mxGeometry>
        </mxCell>
        <mxCell id="T3Ntwo333TGOfmnkiFuI-1" value="" style="edgeStyle=orthogonalEdgeStyle;html=1;endArrow=open;elbow=vertical;endFill=0;dashed=1;dashPattern=1 4;rounded=0;fillColor=#80b6a1;entryX=0;entryY=0.5;entryDx=0;entryDy=0;entryPerimeter=0;exitX=1;exitY=0.5;exitDx=0;exitDy=0;exitPerimeter=0;" parent="RvUQp98ntliPEG7AJHw2-1" source="RvUQp98ntliPEG7AJHw2-23" target="T3Ntwo333TGOfmnkiFuI-0" edge="1">
          <mxGeometry width="160" relative="1" as="geometry">
            <mxPoint x="294.5" y="488.5" as="sourcePoint" />
            <mxPoint x="401" y="458" as="targetPoint" />
          </mxGeometry>
        </mxCell>
      </root>
    </mxGraphModel>
  </diagram>
  <diagram id="BtulPFgPMS5ekDTtC-gG" name="SR-UIpage">
    <mxGraphModel dx="1800" dy="1166" grid="1" gridSize="10" guides="1" tooltips="1" connect="1" arrows="1" fold="1" page="1" pageScale="1" pageWidth="1169" pageHeight="827" math="0" shadow="0">
      <root>
        <mxCell id="0" />
        <mxCell id="1" parent="0" />
        <mxCell id="-c2AasksDiLbEGckK2WA-1" value="" style="strokeWidth=1;shadow=0;dashed=0;align=center;html=1;shape=mxgraph.mockup.containers.browserWindow;rSize=0;strokeColor=#666666;strokeColor2=#008cff;strokeColor3=#c4c4c4;mainText=,;recursiveResize=0;" parent="1" vertex="1">
          <mxGeometry x="150" y="139" width="720" height="550" as="geometry" />
        </mxCell>
        <mxCell id="-c2AasksDiLbEGckK2WA-2" value="Page 1" style="strokeWidth=1;shadow=0;dashed=0;align=center;html=1;shape=mxgraph.mockup.containers.anchor;fontSize=17;fontColor=#666666;align=left;" parent="-c2AasksDiLbEGckK2WA-1" vertex="1">
          <mxGeometry x="60" y="12" width="110" height="26" as="geometry" />
        </mxCell>
        <mxCell id="-c2AasksDiLbEGckK2WA-3" value="https://www.draw.io" style="strokeWidth=1;shadow=0;dashed=0;align=center;html=1;shape=mxgraph.mockup.containers.anchor;rSize=0;fontSize=17;fontColor=#666666;align=left;" parent="-c2AasksDiLbEGckK2WA-1" vertex="1">
          <mxGeometry x="130" y="60" width="250" height="26" as="geometry" />
        </mxCell>
        <mxCell id="-c2AasksDiLbEGckK2WA-4" value="Location" style="strokeWidth=1;shadow=0;dashed=0;align=center;html=1;shape=mxgraph.mockup.forms.comboBox;strokeColor=#999999;fillColor=#ddeeff;align=left;fillColor2=#aaddff;mainText=;fontColor=#666666;fontSize=17;spacingLeft=3;" parent="-c2AasksDiLbEGckK2WA-1" vertex="1">
          <mxGeometry x="40" y="171" width="150" height="30" as="geometry" />
        </mxCell>
        <mxCell id="-c2AasksDiLbEGckK2WA-5" value="Problem" style="strokeWidth=1;shadow=0;dashed=0;align=center;html=1;shape=mxgraph.mockup.forms.comboBox;strokeColor=#999999;fillColor=#ddeeff;align=left;fillColor2=#aaddff;mainText=;fontColor=#666666;fontSize=17;spacingLeft=3;" parent="-c2AasksDiLbEGckK2WA-1" vertex="1">
          <mxGeometry x="430" y="260" width="150" height="30" as="geometry" />
        </mxCell>
        <mxCell id="-c2AasksDiLbEGckK2WA-6" value="TAG" style="strokeWidth=1;shadow=0;dashed=0;align=center;html=1;shape=mxgraph.mockup.forms.comboBox;strokeColor=#999999;fillColor=#ddeeff;align=left;fillColor2=#aaddff;mainText=;fontColor=#666666;fontSize=17;spacingLeft=3;" parent="-c2AasksDiLbEGckK2WA-1" vertex="1">
          <mxGeometry x="430" y="311" width="150" height="30" as="geometry" />
        </mxCell>
        <mxCell id="-c2AasksDiLbEGckK2WA-7" value="TAG number" style="strokeWidth=1;shadow=0;dashed=0;align=center;html=1;shape=mxgraph.mockup.forms.comboBox;strokeColor=#999999;fillColor=#ddeeff;align=left;fillColor2=#aaddff;mainText=;fontColor=#666666;fontSize=17;spacingLeft=3;" parent="-c2AasksDiLbEGckK2WA-1" vertex="1">
          <mxGeometry x="430" y="371" width="150" height="30" as="geometry" />
        </mxCell>
        <mxCell id="-c2AasksDiLbEGckK2WA-8" value="Item (cat/names)" style="strokeWidth=1;shadow=0;dashed=0;align=center;html=1;shape=mxgraph.mockup.forms.comboBox;strokeColor=#999999;fillColor=#ddeeff;align=left;fillColor2=#aaddff;mainText=;fontColor=#666666;fontSize=17;spacingLeft=3;" parent="-c2AasksDiLbEGckK2WA-1" vertex="1">
          <mxGeometry x="40" y="261" width="330" height="30" as="geometry" />
        </mxCell>
        <mxCell id="-c2AasksDiLbEGckK2WA-10" value="Items (With Hierarchy of categories and Aldi Names?)" style="strokeWidth=1;shadow=0;dashed=0;align=center;html=1;shape=mxgraph.mockup.text.textBox;fontColor=#666666;align=left;fontSize=13;spacingLeft=4;spacingTop=-3;strokeColor=#666666;mainText=" parent="-c2AasksDiLbEGckK2WA-1" vertex="1">
          <mxGeometry x="40" y="311" width="330" height="30" as="geometry" />
        </mxCell>
      </root>
    </mxGraphModel>
  </diagram>
  <diagram id="2wlgp4-B21c-5mDUFFgj" name="Components">
    <mxGraphModel dx="1500" dy="972" grid="1" gridSize="10" guides="1" tooltips="1" connect="1" arrows="1" fold="1" page="1" pageScale="1" pageWidth="1169" pageHeight="827" math="0" shadow="0">
      <root>
        <mxCell id="0" />
        <mxCell id="1" parent="0" />
        <mxCell id="L5J293ZByZ9VCPRC4FHN-1" value="Script Include" style="html=1;outlineConnect=0;whiteSpace=wrap;fillColor=#fff2cc;shape=mxgraph.archimate3.application;appType=comp;archiType=square;strokeColor=#d6b656;verticalAlign=top;align=left;dashed=1;" vertex="1" parent="1">
          <mxGeometry x="220" y="320" width="440" height="310" as="geometry" />
        </mxCell>
        <mxCell id="L5J293ZByZ9VCPRC4FHN-2" value="Flow" style="html=1;outlineConnect=0;whiteSpace=wrap;fillColor=#d5e8d4;shape=mxgraph.archimate3.application;appType=comp;archiType=square;strokeColor=#82b366;verticalAlign=top;align=left;" vertex="1" parent="1">
          <mxGeometry x="310" y="222.25" width="530" height="110" as="geometry" />
        </mxCell>
        <mxCell id="L5J293ZByZ9VCPRC4FHN-3" value="&amp;lt;ALDI BMC Astea create Service Order&amp;gt;" style="html=1;outlineConnect=0;whiteSpace=wrap;fillColor=#d5e8d4;shape=mxgraph.archimate3.application;appType=proc;archiType=rounded;strokeColor=#82b366;" vertex="1" parent="1">
          <mxGeometry x="319" y="250.5" width="260" height="58" as="geometry" />
        </mxCell>
        <mxCell id="L5J293ZByZ9VCPRC4FHN-4" value="SubFlow" style="html=1;outlineConnect=0;whiteSpace=wrap;fillColor=#d5e8d4;shape=mxgraph.archimate3.application;appType=comp;archiType=square;strokeColor=#82b366;verticalAlign=top;align=left;" vertex="1" parent="1">
          <mxGeometry x="300" y="425.75" width="310" height="102" as="geometry" />
        </mxCell>
        <mxCell id="L5J293ZByZ9VCPRC4FHN-5" value="&amp;lt;ALDI BMC Astea make SOAP call&amp;gt;" style="html=1;outlineConnect=0;whiteSpace=wrap;fillColor=#d5e8d4;shape=mxgraph.archimate3.application;appType=proc;archiType=rounded;strokeColor=#82b366;verticalAlign=middle;" vertex="1" parent="1">
          <mxGeometry x="319" y="448.25" width="260" height="58.5" as="geometry" />
        </mxCell>
        <mxCell id="L5J293ZByZ9VCPRC4FHN-6" value="OnHold, &lt;br&gt;Assignment Group..." style="html=1;outlineConnect=0;whiteSpace=wrap;fillColor=#d5e8d4;shape=mxgraph.archimate3.event;strokeColor=#82b366;" vertex="1" parent="1">
          <mxGeometry x="349" y="138" width="200" height="57" as="geometry" />
        </mxCell>
        <mxCell id="L5J293ZByZ9VCPRC4FHN-7" value="" style="edgeStyle=none;rounded=0;orthogonalLoop=1;jettySize=auto;html=1;fontSize=6;" edge="1" parent="1" source="L5J293ZByZ9VCPRC4FHN-6" target="L5J293ZByZ9VCPRC4FHN-3">
          <mxGeometry relative="1" as="geometry">
            <mxPoint x="321.5" y="166.5" as="sourcePoint" />
            <mxPoint x="366.5" y="166.5" as="targetPoint" />
          </mxGeometry>
        </mxCell>
        <mxCell id="L5J293ZByZ9VCPRC4FHN-8" value="&lt;div style=&quot;box-sizing: border-box ; width: 100% ; background: #e4e4e4 ; padding: 2px&quot;&gt;&amp;lt;sc_task&amp;gt;&lt;/div&gt;&lt;table style=&quot;width: 100% ; font-size: 1em&quot; cellpadding=&quot;2&quot; cellspacing=&quot;0&quot;&gt;&lt;tbody&gt;&lt;tr&gt;&lt;td&gt;PK&lt;/td&gt;&lt;td&gt;sys_id&lt;/td&gt;&lt;/tr&gt;&lt;tr&gt;&lt;td&gt;&lt;/td&gt;&lt;td&gt;state&lt;br&gt;&lt;/td&gt;&lt;/tr&gt;&lt;tr&gt;&lt;td&gt;&lt;br&gt;&lt;/td&gt;&lt;td&gt;&lt;br&gt;&lt;/td&gt;&lt;/tr&gt;&lt;tr&gt;&lt;td&gt;&lt;br&gt;&lt;/td&gt;&lt;td&gt;&lt;/td&gt;&lt;/tr&gt;&lt;/tbody&gt;&lt;/table&gt;" style="verticalAlign=top;align=left;overflow=fill;html=1;rounded=0;shadow=0;comic=0;labelBackgroundColor=none;strokeWidth=1;fontFamily=Verdana;fontSize=12" vertex="1" parent="1">
          <mxGeometry x="604.5" y="130" width="104" height="73" as="geometry" />
        </mxCell>
        <mxCell id="L5J293ZByZ9VCPRC4FHN-9" value="BMC Astea" style="swimlane;" vertex="1" parent="1">
          <mxGeometry x="678" y="605.75" width="121" height="90" as="geometry" />
        </mxCell>
        <mxCell id="L5J293ZByZ9VCPRC4FHN-10" value="API" style="html=1;outlineConnect=0;whiteSpace=wrap;fillColor=#dae8fc;shape=mxgraph.archimate3.application;appType=interface;archiType=square;strokeColor=#6c8ebf;verticalAlign=middle;" vertex="1" parent="L5J293ZByZ9VCPRC4FHN-9">
          <mxGeometry x="24.5" y="35.5" width="72" height="35" as="geometry" />
        </mxCell>
        <mxCell id="L5J293ZByZ9VCPRC4FHN-11" value="" style="html=1;endArrow=block;dashed=1;elbow=vertical;endFill=1;dashPattern=6 4;rounded=0;fontSize=12;" edge="1" parent="1" source="L5J293ZByZ9VCPRC4FHN-3" target="L5J293ZByZ9VCPRC4FHN-5">
          <mxGeometry width="160" relative="1" as="geometry">
            <mxPoint x="535.5" y="457.25" as="sourcePoint" />
            <mxPoint x="768.0397111913358" y="505.75" as="targetPoint" />
          </mxGeometry>
        </mxCell>
        <mxCell id="L5J293ZByZ9VCPRC4FHN-12" value="ALDIBmcAsteaInterface" style="html=1;outlineConnect=0;whiteSpace=wrap;fillColor=#d5e8d4;shape=mxgraph.archimate3.application;appType=comp;archiType=square;strokeColor=#82b366;verticalAlign=middle;" vertex="1" parent="1">
          <mxGeometry x="240" y="350" width="190" height="52" as="geometry" />
        </mxCell>
        <mxCell id="L5J293ZByZ9VCPRC4FHN-13" value="" style="html=1;endArrow=open;elbow=vertical;endFill=0;dashed=1;dashPattern=1 4;rounded=0;fillColor=#00b9f2;" edge="1" parent="1" source="L5J293ZByZ9VCPRC4FHN-6" target="L5J293ZByZ9VCPRC4FHN-8">
          <mxGeometry width="160" relative="1" as="geometry">
            <mxPoint x="631.4985714285716" y="258.5" as="sourcePoint" />
            <mxPoint x="777.7612751677856" y="368.5" as="targetPoint" />
          </mxGeometry>
        </mxCell>
        <mxCell id="L5J293ZByZ9VCPRC4FHN-22" value="Flow Action" style="html=1;outlineConnect=0;whiteSpace=wrap;fillColor=#d5e8d4;shape=mxgraph.archimate3.application;appType=comp;archiType=square;strokeColor=#82b366;verticalAlign=top;" vertex="1" parent="1">
          <mxGeometry x="300" y="605.75" width="310" height="103.5" as="geometry" />
        </mxCell>
        <mxCell id="L5J293ZByZ9VCPRC4FHN-24" value="&amp;lt;ALDI BMC Astea SOAP call&amp;gt;" style="html=1;outlineConnect=0;whiteSpace=wrap;fillColor=#d5e8d4;shape=mxgraph.archimate3.application;appType=proc;archiType=rounded;strokeColor=#82b366;" vertex="1" parent="1">
          <mxGeometry x="312" y="634.5" width="276" height="46" as="geometry" />
        </mxCell>
        <mxCell id="L5J293ZByZ9VCPRC4FHN-27" value="" style="html=1;endArrow=block;dashed=1;elbow=vertical;endFill=1;dashPattern=6 4;rounded=0;fontSize=12;" edge="1" parent="1" source="L5J293ZByZ9VCPRC4FHN-5" target="L5J293ZByZ9VCPRC4FHN-24">
          <mxGeometry width="160" relative="1" as="geometry">
            <mxPoint x="668" y="651.75" as="sourcePoint" />
            <mxPoint x="877" y="348.67349726775933" as="targetPoint" />
          </mxGeometry>
        </mxCell>
        <mxCell id="L5J293ZByZ9VCPRC4FHN-30" value="&amp;lt;Cat item: BMC Astea Service Order&amp;gt;" style="html=1;outlineConnect=0;whiteSpace=wrap;fillColor=#d5e8d4;shape=mxgraph.archimate3.application;appType=proc;archiType=rounded;strokeColor=#82b366;" vertex="1" parent="1">
          <mxGeometry x="604.5" y="250.5" width="220" height="58" as="geometry" />
        </mxCell>
        <mxCell id="L5J293ZByZ9VCPRC4FHN-31" value="&lt;div style=&quot;box-sizing: border-box ; width: 100% ; background: #e4e4e4 ; padding: 2px&quot;&gt;&amp;lt;u_aldi_interface_transaction&amp;gt;&lt;/div&gt;&lt;table style=&quot;width: 100% ; font-size: 1em&quot; cellpadding=&quot;2&quot; cellspacing=&quot;0&quot;&gt;&lt;tbody&gt;&lt;tr&gt;&lt;td&gt;&lt;br&gt;&lt;/td&gt;&lt;td&gt;&lt;/td&gt;&lt;/tr&gt;&lt;/tbody&gt;&lt;/table&gt;" style="verticalAlign=top;align=left;overflow=fill;html=1;rounded=0;shadow=0;comic=0;labelBackgroundColor=none;strokeWidth=1;fontFamily=Verdana;fontSize=12" vertex="1" parent="1">
          <mxGeometry x="530" y="354" width="194" height="48" as="geometry" />
        </mxCell>
        <mxCell id="L5J293ZByZ9VCPRC4FHN-32" value="" style="html=1;endArrow=open;elbow=vertical;endFill=0;dashed=1;dashPattern=1 4;rounded=0;fillColor=#00b9f2;" edge="1" parent="1" source="L5J293ZByZ9VCPRC4FHN-5" target="L5J293ZByZ9VCPRC4FHN-31">
          <mxGeometry width="160" relative="1" as="geometry">
            <mxPoint x="800" y="172.75" as="sourcePoint" />
            <mxPoint x="856" y="172.75" as="targetPoint" />
          </mxGeometry>
        </mxCell>
        <mxCell id="L5J293ZByZ9VCPRC4FHN-33" value="Scripted REST API" style="html=1;outlineConnect=0;whiteSpace=wrap;fillColor=#d5e8d4;shape=mxgraph.archimate3.application;appType=comp;archiType=square;strokeColor=#82b366;verticalAlign=top;align=left;" vertex="1" parent="1">
          <mxGeometry x="640" y="426.5" width="200" height="102" as="geometry" />
        </mxCell>
        <mxCell id="L5J293ZByZ9VCPRC4FHN-14" value="" style="html=1;endArrow=block;dashed=1;elbow=vertical;endFill=1;dashPattern=6 4;rounded=0;fontSize=12;" edge="1" parent="1" source="L5J293ZByZ9VCPRC4FHN-24" target="L5J293ZByZ9VCPRC4FHN-10">
          <mxGeometry width="160" relative="1" as="geometry">
            <mxPoint x="485" y="1044.7739179954442" as="sourcePoint" />
            <mxPoint x="489.5" y="1008.8955445544555" as="targetPoint" />
          </mxGeometry>
        </mxCell>
        <mxCell id="ZlzW70LXLLc55NaW1HuK-1" value="/api/aldie/bmc/incident" style="html=1;outlineConnect=0;whiteSpace=wrap;fillColor=#d5e8d4;shape=mxgraph.archimate3.application;appType=proc;archiType=rounded;strokeColor=#82b366;verticalAlign=middle;" vertex="1" parent="1">
          <mxGeometry x="660" y="448.25" width="160" height="58.5" as="geometry" />
        </mxCell>
        <mxCell id="ZlzW70LXLLc55NaW1HuK-2" value="" style="html=1;endArrow=open;elbow=vertical;endFill=0;dashed=1;dashPattern=1 4;rounded=0;fillColor=#00b9f2;" edge="1" parent="1" source="ZlzW70LXLLc55NaW1HuK-1" target="L5J293ZByZ9VCPRC4FHN-31">
          <mxGeometry width="160" relative="1" as="geometry">
            <mxPoint x="519" y="516.75" as="sourcePoint" />
            <mxPoint x="598" y="555.75" as="targetPoint" />
          </mxGeometry>
        </mxCell>
        <mxCell id="ZlzW70LXLLc55NaW1HuK-3" value="" style="html=1;endArrow=block;dashed=1;elbow=vertical;endFill=1;dashPattern=6 4;rounded=0;fontSize=12;" edge="1" parent="1" source="L5J293ZByZ9VCPRC4FHN-9" target="ZlzW70LXLLc55NaW1HuK-1">
          <mxGeometry width="160" relative="1" as="geometry">
            <mxPoint x="598" y="668" as="sourcePoint" />
            <mxPoint x="725" y="669" as="targetPoint" />
          </mxGeometry>
        </mxCell>
        <mxCell id="ZlzW70LXLLc55NaW1HuK-4" value="Service Order&lt;br&gt;updated" style="html=1;outlineConnect=0;whiteSpace=wrap;fillColor=#dae8fc;shape=mxgraph.archimate3.event;strokeColor=#6c8ebf;" vertex="1" parent="1">
          <mxGeometry x="840" y="622.25" width="118.5" height="57" as="geometry" />
        </mxCell>
        <mxCell id="ZlzW70LXLLc55NaW1HuK-5" value="" style="edgeStyle=none;rounded=0;orthogonalLoop=1;jettySize=auto;html=1;fontSize=6;" edge="1" parent="1" source="ZlzW70LXLLc55NaW1HuK-4" target="L5J293ZByZ9VCPRC4FHN-9">
          <mxGeometry relative="1" as="geometry">
            <mxPoint x="459" y="205" as="sourcePoint" />
            <mxPoint x="459" y="261" as="targetPoint" />
          </mxGeometry>
        </mxCell>
      </root>
    </mxGraphModel>
  </diagram>
</mxfile>
